<?xml version="1.0" encoding="UTF-8"?>
<svg xmlns="http://www.w3.org/2000/svg" xmlns:xlink="http://www.w3.org/1999/xlink" width="96pt" height="96pt" viewBox="0 0 96 96" version="1.1">
<g id="surface1173875">
<path style=" stroke:none;fill-rule:nonzero;fill:rgb(60.784314%,34.901961%,71.372549%);fill-opacity:1;" d="M 48 3.839844 C 46.628906 3.839844 45.253906 4.183594 44.03125 4.875 L 11.691406 23.046875 C 9.21875 24.433594 7.679688 27.039062 7.679688 29.828125 L 7.679688 66.171875 C 7.679688 68.960938 9.21875 71.566406 11.691406 72.953125 L 44.03125 91.125 C 45.253906 91.816406 46.628906 92.160156 48 92.160156 C 49.371094 92.160156 50.746094 91.816406 51.96875 91.125 L 84.308594 72.960938 C 86.78125 71.566406 88.320312 68.960938 88.320312 66.171875 L 88.320312 29.828125 C 88.320312 27.039062 86.78125 24.433594 84.308594 23.046875 L 51.96875 4.875 C 50.746094 4.183594 49.371094 3.839844 48 3.839844 Z M 48 24.960938 C 55.261719 24.960938 61.972656 28.328125 66.324219 34.058594 L 57.90625 38.933594 C 55.378906 36.164062 51.789062 34.558594 48 34.558594 C 40.589844 34.558594 34.558594 40.589844 34.558594 48 C 34.558594 55.410156 40.589844 61.441406 48 61.441406 C 51.789062 61.441406 55.378906 59.835938 57.90625 57.066406 L 66.324219 61.941406 C 61.972656 67.671875 55.261719 71.039062 48 71.039062 C 35.296875 71.039062 24.960938 60.703125 24.960938 48 C 24.960938 35.296875 35.296875 24.960938 48 24.960938 Z M 67.199219 38.398438 L 71.039062 38.398438 L 71.039062 42.238281 L 74.878906 42.238281 L 74.878906 38.398438 L 78.71875 38.398438 L 78.71875 42.238281 L 82.558594 42.238281 L 82.558594 46.078125 L 78.71875 46.078125 L 78.71875 49.921875 L 82.558594 49.921875 L 82.558594 53.761719 L 78.71875 53.761719 L 78.71875 57.601562 L 74.878906 57.601562 L 74.878906 53.761719 L 71.039062 53.761719 L 71.039062 57.601562 L 67.199219 57.601562 L 67.199219 53.761719 L 63.359375 53.761719 L 63.359375 49.921875 L 67.199219 49.921875 L 67.199219 46.078125 L 63.359375 46.078125 L 63.359375 42.238281 L 67.199219 42.238281 Z M 71.039062 46.078125 L 71.039062 49.921875 L 74.878906 49.921875 L 74.878906 46.078125 Z M 71.039062 46.078125 "/>
</g>
</svg>
