<?xml version="1.0" encoding="UTF-8"?>
<svg xmlns="http://www.w3.org/2000/svg" xmlns:xlink="http://www.w3.org/1999/xlink" width="96pt" height="96pt" viewBox="0 0 96 96" version="1.1">
<g id="surface1167358">
<path style=" stroke:none;fill-rule:nonzero;fill:rgb(0%,0%,0%);fill-opacity:1;" d="M 59.84375 15.359375 C 58.941406 15.335938 58.15625 15.683594 57.75 16.679688 C 57.058594 18.351562 58.777344 19.988281 59.390625 20.84375 C 59.820312 21.433594 60.375 22.101562 60.683594 22.769531 C 60.886719 23.210938 60.914062 23.65625 61.085938 24.121094 C 61.515625 25.265625 62.199219 26.574219 62.746094 27.636719 C 63.023438 28.175781 63.328125 28.738281 63.683594 29.21875 C 63.898438 29.511719 64.265625 29.648438 64.328125 30.097656 C 63.96875 30.609375 63.945312 31.394531 63.742188 32.039062 C 62.828125 34.925781 63.171875 38.519531 64.5 40.648438 C 64.914062 41.308594 65.878906 42.710938 67.199219 42.179688 C 68.355469 41.707031 68.101562 40.246094 68.429688 38.949219 C 68.503906 38.664062 68.460938 38.445312 68.609375 38.25 L 68.609375 38.308594 C 68.953125 39.015625 69.308594 39.71875 69.660156 40.417969 C 70.449219 41.675781 71.835938 42.988281 73.003906 43.882812 C 73.613281 44.339844 74.09375 45.136719 74.878906 45.40625 L 74.878906 45.34375 L 74.820312 45.34375 C 74.671875 45.105469 74.429688 45.007812 74.234375 44.820312 C 73.777344 44.371094 73.265625 43.808594 72.890625 43.289062 C 71.820312 41.84375 70.875 40.253906 70.019531 38.601562 C 69.609375 37.816406 69.246094 36.945312 68.902344 36.140625 C 68.765625 35.828125 68.765625 35.363281 68.488281 35.199219 C 68.109375 35.789062 67.550781 36.261719 67.261719 36.960938 C 66.796875 38.070312 66.726562 39.425781 66.554688 40.828125 C 66.449219 40.867188 66.496094 40.835938 66.441406 40.890625 C 65.625 40.6875 65.332031 39.847656 65.03125 39.128906 C 64.265625 37.304688 64.117188 34.363281 64.800781 32.273438 C 64.972656 31.726562 65.761719 30.015625 65.445312 29.511719 C 65.296875 29.011719 64.785156 28.726562 64.507812 28.34375 C 64.15625 27.871094 63.808594 27.246094 63.570312 26.699219 C 62.941406 25.273438 62.347656 23.625 61.679688 22.183594 C 61.363281 21.496094 60.832031 20.804688 60.390625 20.191406 C 59.902344 19.515625 59.363281 19.019531 58.980469 18.195312 C 58.851562 17.910156 58.664062 17.445312 58.867188 17.144531 C 58.925781 16.941406 59.015625 16.859375 59.21875 16.792969 C 59.558594 16.53125 60.503906 16.875 60.863281 17.023438 C 61.800781 17.414062 62.585938 17.789062 63.382812 18.316406 C 63.765625 18.570312 64.148438 19.058594 64.613281 19.199219 L 65.136719 19.199219 C 65.96875 19.386719 66.890625 19.253906 67.65625 19.492188 C 69.023438 19.90625 70.246094 20.550781 71.347656 21.246094 C 74.730469 23.378906 77.496094 26.414062 79.378906 30.039062 C 79.6875 30.621094 79.824219 31.183594 80.09375 31.800781 C 80.625 33.046875 81.308594 34.335938 81.847656 35.550781 C 82.378906 36.773438 82.90625 37.996094 83.664062 39.007812 C 84.058594 39.539062 85.605469 39.832031 86.300781 40.125 C 86.789062 40.335938 87.601562 40.550781 88.058594 40.828125 C 88.949219 41.363281 89.804688 42 90.636719 42.59375 C 91.058594 42.886719 92.332031 43.523438 92.398438 44.054688 C 90.335938 44.003906 88.761719 44.191406 87.421875 44.761719 C 87.039062 44.925781 86.421875 44.925781 86.363281 45.40625 C 86.566406 45.621094 86.601562 45.953125 86.765625 46.222656 C 87.089844 46.738281 87.628906 47.4375 88.117188 47.804688 C 88.648438 48.203125 89.191406 48.628906 89.761719 48.984375 C 90.765625 49.589844 91.890625 49.941406 92.863281 50.558594 C 93.433594 50.925781 94.011719 51.382812 94.566406 51.789062 C 94.84375 51.996094 95.023438 52.3125 95.386719 52.441406 L 95.386719 52.378906 C 95.199219 52.140625 95.152344 51.808594 94.980469 51.5625 L 94.207031 50.789062 C 93.464844 49.808594 92.519531 48.9375 91.515625 48.21875 C 90.710938 47.640625 88.921875 46.859375 88.589844 45.929688 L 88.53125 45.871094 C 89.09375 45.808594 89.761719 45.601562 90.285156 45.457031 C 91.171875 45.226562 91.949219 45.285156 92.859375 45.050781 C 93.269531 44.933594 93.683594 44.8125 94.09375 44.699219 L 94.09375 44.460938 C 93.636719 43.996094 93.308594 43.363281 92.804688 42.9375 C 91.492188 41.820312 90.058594 40.703125 88.582031 39.773438 C 87.765625 39.253906 86.753906 38.917969 85.890625 38.484375 C 85.597656 38.332031 85.085938 38.257812 84.890625 38.011719 C 84.433594 37.433594 84.1875 36.699219 83.835938 36.023438 C 83.101562 34.605469 82.378906 33.058594 81.726562 31.566406 C 81.285156 30.554688 80.992188 29.550781 80.4375 28.636719 C 77.773438 24.261719 74.910156 21.613281 70.46875 19.019531 C 69.523438 18.464844 68.390625 18.253906 67.191406 17.96875 C 66.539062 17.925781 65.902344 17.886719 65.25 17.851562 C 64.859375 17.683594 64.449219 17.203125 64.078125 16.964844 C 63.15625 16.386719 61.34375 15.382812 59.84375 15.359375 Z M 66.195312 21.71875 C 65.765625 21.710938 65.460938 21.773438 65.136719 21.839844 L 65.136719 21.898438 L 65.199219 21.898438 C 65.398438 22.320312 65.765625 22.589844 66.023438 22.949219 C 66.21875 23.363281 66.40625 23.773438 66.601562 24.1875 L 66.660156 24.128906 C 67.019531 23.871094 67.191406 23.460938 67.191406 22.835938 C 67.042969 22.6875 67.019531 22.492188 66.898438 22.3125 C 66.726562 22.066406 66.40625 21.929688 66.195312 21.71875 Z M 3.585938 46.074219 C 3.007812 46.09375 2.378906 46.207031 1.695312 46.425781 C 0.554688 46.769531 -0.0078125 47.453125 -0.0078125 48.839844 L -0.0078125 63.359375 L 3.839844 63.359375 L 3.839844 49.191406 L 9.171875 61.304688 C 9.832031 62.8125 10.734375 63.351562 12.496094 63.351562 C 14.265625 63.351562 15.128906 62.8125 15.789062 61.304688 L 21.121094 49.5 L 21.121094 63.359375 L 24.960938 63.359375 L 24.960938 48.839844 C 24.960938 47.453125 24.40625 46.769531 23.257812 46.425781 C 20.527344 45.5625 18.691406 46.304688 17.863281 48.171875 L 12.390625 60.488281 L 7.09375 48.171875 C 6.496094 46.769531 5.296875 46.003906 3.585938 46.074219 Z M 50.390625 46.078125 C 48.878906 46.078125 44.160156 46.261719 44.160156 49.921875 L 44.160156 52.289062 C 44.160156 53.96875 45.636719 55.34375 48.839844 55.679688 C 49.199219 55.703125 49.558594 55.734375 49.921875 55.734375 C 49.921875 55.734375 53.65625 55.65625 53.761719 55.679688 C 55.921875 55.679688 55.679688 57.359375 55.679688 57.601562 L 55.679688 59.519531 C 55.679688 59.78125 55.621094 61.441406 53.738281 61.441406 L 44.160156 61.441406 L 44.160156 63.359375 L 53.773438 63.359375 C 55.035156 63.359375 56.257812 63.097656 57.234375 62.640625 C 58.851562 61.898438 59.519531 60.890625 59.519531 59.574219 L 59.519531 56.828125 C 59.519531 53.878906 55.859375 53.761719 53.761719 53.761719 L 49.921875 53.761719 C 48.414062 53.761719 48.179688 52.84375 48 51.839844 L 48 49.921875 C 48.179688 49.15625 48.515625 48.121094 49.851562 48 L 59.519531 48 L 59.519531 46.078125 Z M 65.242188 46.078125 C 62.40625 46.46875 61.410156 47.878906 61.410156 49.921875 L 61.410156 59.519531 C 61.410156 61.386719 62.453125 62.511719 64.597656 63.097656 C 65.316406 63.300781 65.96875 63.382812 66.585938 63.382812 L 70.859375 63.359375 L 73.371094 63.359375 L 75.511719 65.28125 L 79.828125 65.28125 L 76.859375 62.601562 C 78.253906 62.023438 78.691406 61.140625 78.691406 59.484375 L 78.691406 49.921875 C 78.691406 47.878906 77.363281 46.46875 74.527344 46.078125 Z M 80.640625 46.078125 L 80.640625 59.4375 C 80.640625 61.753906 81.953125 63.058594 85.425781 63.324219 C 85.746094 63.335938 86.078125 63.359375 86.398438 63.359375 L 96 63.359375 L 96 61.441406 L 87.128906 61.441406 C 85.148438 61.441406 84.480469 60.609375 84.480469 59.421875 L 84.480469 46.078125 Z M 67.53125 48 L 72.472656 48 C 73.777344 48 74.65625 49.050781 74.851562 49.921875 C 74.851562 49.921875 74.878906 58.859375 74.878906 59.519531 C 74.878906 60.179688 74.511719 60.480469 74.511719 60.480469 L 73.46875 59.519531 L 69.121094 59.519531 L 71.257812 61.441406 L 67.53125 61.441406 C 66.195312 61.441406 65.445312 60.449219 65.25 59.519531 L 65.25 50.113281 C 65.25 49.09375 66.03125 48 67.53125 48 Z M 26.878906 51.839844 C 26.953125 51.914062 26.878906 60.023438 26.878906 60.179688 C 26.910156 61.859375 29.039062 63.328125 32.378906 63.359375 L 38.398438 63.359375 L 38.398438 63.488281 C 38.398438 63.847656 38.664062 65.046875 36.480469 65.28125 C 36.457031 65.28125 26.902344 65.28125 26.878906 65.28125 L 26.878906 67.199219 L 36.890625 67.199219 C 38.585938 67.148438 42.261719 66.765625 42.238281 63.824219 C 42.238281 63.773438 42.253906 51.839844 42.238281 51.839844 L 38.398438 51.839844 L 38.398438 61.441406 C 38.339844 61.441406 33.644531 61.453125 32.699219 61.441406 C 30.847656 61.410156 30.691406 60.351562 30.71875 59.949219 L 30.71875 51.839844 Z M 26.878906 51.839844 "/>
</g>
</svg>
